<svg width="1728" height="1117" viewBox="0 0 1728 1117" fill="none" xmlns="http://www.w3.org/2000/svg">
<g clip-path="url(#clip0_301_2)">
<rect width="1728" height="1117" fill="white"/>
<g opacity="0.8">
<path opacity="0.1" d="M164.791 853.323L173.327 852.769L172.93 846.647L167.005 845.06L164.791 853.323ZM101.986 836.494L104.2 828.231L98.2744 826.644L94.8699 831.746L101.986 836.494ZM83.953 863.521L81.739 871.784L87.6642 873.371L91.0687 868.268L83.953 863.521ZM41.0443 852.023L34.0278 847.13L27.0536 857.131L38.8303 860.286L41.0443 852.023ZM147.022 700.059L149.236 691.796L143.438 690.243L140.005 695.166L147.022 700.059ZM194.485 712.777L203.008 712.048L202.496 706.068L196.699 704.514L194.485 712.777ZM210.282 897.371L208.068 905.633L219.845 908.789L218.805 896.641L210.282 897.371ZM166.894 885.745L158.358 886.298L158.755 892.42L164.68 894.007L166.894 885.745ZM162.722 818.854L160.508 827.117L172.028 830.204L171.258 818.302L162.722 818.854ZM158.374 751.66L166.91 751.107L165.269 725.745L151.241 746.938L158.374 751.66ZM121.251 807.742L114.118 803.021L107.559 812.929L119.037 816.005L121.251 807.742ZM167.005 845.06L104.2 828.231L99.7716 844.757L162.577 861.585L167.005 845.06ZM94.8699 831.746L76.8372 858.773L91.0687 868.268L109.101 841.242L94.8699 831.746ZM86.167 855.258L43.2583 843.761L38.8303 860.286L81.739 871.784L86.167 855.258ZM48.0608 856.917L154.038 704.952L140.005 695.166L34.0278 847.13L48.0608 856.917ZM144.808 708.322L192.271 721.04L196.699 704.514L149.236 691.796L144.808 708.322ZM185.962 713.506L201.759 898.1L218.805 896.641L203.008 712.048L185.962 713.506ZM212.496 889.108L169.108 877.482L164.68 894.007L208.068 905.633L212.496 889.108ZM175.43 885.191L173.327 852.769L156.254 853.876L158.358 886.298L175.43 885.191ZM171.258 818.302L166.91 751.107L149.838 752.212L154.185 819.407L171.258 818.302ZM151.241 746.938L114.118 803.021L128.384 812.464L165.507 756.381L151.241 746.938ZM119.037 816.005L160.508 827.117L164.936 810.591L123.465 799.479L119.037 816.005Z" fill="#0D4D4B"/>
<path opacity="0.1" d="M417.682 961.188L425.239 965.195L429.246 957.637L421.689 953.63L417.682 961.188ZM336.075 1115.11L332.068 1122.66L339.625 1126.67L343.632 1119.11L336.075 1115.11ZM298.582 1095.23L291.024 1091.22L287.017 1098.78L294.575 1102.79L298.582 1095.23ZM380.189 941.309L384.196 933.751L376.638 929.744L372.631 937.302L380.189 941.309ZM410.124 957.181L328.517 1111.1L343.632 1119.11L425.239 965.195L410.124 957.181ZM340.082 1107.55L302.589 1087.67L294.575 1102.79L332.068 1122.66L340.082 1107.55ZM306.139 1099.24L387.746 945.316L372.631 937.302L291.024 1091.22L306.139 1099.24ZM376.181 948.867L413.675 968.745L421.689 953.63L384.196 933.751L376.181 948.867Z" fill="#0D4D4B"/>
<path opacity="0.1" d="M1338.68 927.026L1334.05 919.832L1326.85 924.46L1331.48 931.654L1338.68 927.026ZM1357.74 956.664L1350.55 961.292L1355.17 968.486L1362.37 963.858L1357.74 956.664ZM1405.54 925.917L1412.73 921.29L1408.1 914.095L1400.91 918.723L1405.54 925.917ZM1423.26 953.468L1427.89 960.662L1435.08 956.034L1430.45 948.84L1423.26 953.468ZM1375.46 984.214L1370.84 977.02L1363.64 981.648L1368.27 988.842L1375.46 984.214ZM1396.14 1016.36L1388.95 1020.98L1393.57 1028.18L1400.77 1023.55L1396.14 1016.36ZM1450.2 981.582L1457.39 976.954L1452.76 969.76L1445.57 974.388L1450.2 981.582ZM1468.59 1010.18L1473.22 1017.37L1480.41 1012.74L1475.79 1005.55L1468.59 1010.18ZM1378.84 1067.91L1371.65 1072.54L1376.28 1079.73L1383.47 1075.1L1378.84 1067.91ZM1284.59 921.392L1279.96 914.198L1272.77 918.825L1277.4 926.02L1284.59 921.392ZM1374.34 863.658L1381.53 859.03L1376.9 851.836L1369.71 856.464L1374.34 863.658ZM1392.73 892.252L1397.36 899.446L1404.55 894.818L1399.93 887.624L1392.73 892.252ZM1331.48 931.654L1350.55 961.292L1364.94 952.036L1345.87 922.399L1331.48 931.654ZM1362.37 963.858L1410.16 933.112L1400.91 918.723L1353.11 949.47L1362.37 963.858ZM1398.34 930.545L1416.07 958.096L1430.45 948.84L1412.73 921.29L1398.34 930.545ZM1418.63 946.274L1370.84 977.02L1380.09 991.408L1427.89 960.662L1418.63 946.274ZM1368.27 988.842L1388.95 1020.98L1403.33 1011.73L1382.66 979.586L1368.27 988.842ZM1400.77 1023.55L1454.83 988.776L1445.57 974.388L1391.51 1009.16L1400.77 1023.55ZM1443 986.21L1461.4 1014.8L1475.79 1005.55L1457.39 976.954L1443 986.21ZM1463.96 1002.98L1374.22 1060.71L1383.47 1075.1L1473.22 1017.37L1463.96 1002.98ZM1386.04 1063.28L1291.79 916.764L1277.4 926.02L1371.65 1072.54L1386.04 1063.28ZM1289.22 928.586L1378.97 870.853L1369.71 856.464L1279.96 914.198L1289.22 928.586ZM1367.14 868.286L1385.54 896.88L1399.93 887.624L1381.53 859.03L1367.14 868.286ZM1388.1 885.058L1334.05 919.832L1343.3 934.221L1397.36 899.446L1388.1 885.058Z" fill="#0D4D4B"/>
<path opacity="0.1" d="M1516.88 659.142L1509.69 663.77L1514.31 670.964L1521.51 666.336L1516.88 659.142ZM1563.63 629.067L1570.83 624.439L1566.2 617.245L1559 621.873L1563.63 629.067ZM1581.36 656.617L1585.98 663.811L1593.18 659.183L1588.55 651.989L1581.36 656.617ZM1498.91 709.651L1491.72 714.279L1496.35 721.473L1503.54 716.845L1498.91 709.651ZM1404.66 563.134L1400.03 555.94L1392.84 560.568L1397.47 567.762L1404.66 563.134ZM1440.35 540.175L1447.54 535.547L1442.92 528.353L1435.72 532.981L1440.35 540.175ZM1521.51 666.336L1568.26 636.261L1559 621.873L1512.25 651.948L1521.51 666.336ZM1556.44 633.695L1574.16 661.245L1588.55 651.989L1570.83 624.439L1556.44 633.695ZM1576.73 649.423L1494.29 702.457L1503.54 716.845L1585.98 663.811L1576.73 649.423ZM1506.11 705.023L1411.85 558.506L1397.47 567.762L1491.72 714.279L1506.11 705.023ZM1409.29 570.328L1444.98 547.369L1435.72 532.981L1400.03 555.94L1409.29 570.328ZM1433.16 544.803L1509.69 663.77L1524.07 654.514L1447.54 535.547L1433.16 544.803Z" fill="#0D4D4B"/>
<path opacity="0.1" d="M997.911 814.464L989.358 814.626L989.438 818.864L992.859 821.367L997.911 814.464ZM996.075 717.792L1004.63 717.629L1004.15 692.275L989.171 712.74L996.075 717.792ZM950.645 779.878L945.593 786.781L952.497 791.833L957.548 784.929L950.645 779.878ZM916.397 754.818L909.494 749.767L904.442 756.67L911.346 761.722L916.397 754.818ZM1019.27 614.222L1024.33 607.319L1017.42 602.267L1012.37 609.171L1019.27 614.222ZM1053.52 639.282L1060.43 644.334L1065.48 637.43L1058.57 632.379L1053.52 639.282ZM1008.38 700.968L1001.48 695.917L986.482 716.415L1010.83 709.167L1008.38 700.968ZM1100.39 673.575L1105.44 666.671L1102.01 664.165L1097.95 665.376L1100.39 673.575ZM1140.64 703.031L1142.93 711.275L1159.95 706.561L1145.69 696.127L1140.64 703.031ZM1035.75 732.066L1033.47 723.821L1026.97 725.622L1027.21 732.369L1035.75 732.066ZM1039.77 845.092L1034.72 851.996L1048.94 862.405L1048.32 844.789L1039.77 845.092ZM1006.46 814.301L1004.63 717.629L987.522 717.954L989.358 814.626L1006.46 814.301ZM989.171 712.74L943.741 774.827L957.548 784.929L1002.98 722.843L989.171 712.74ZM955.696 772.975L921.448 747.915L911.346 761.722L945.593 786.781L955.696 772.975ZM923.301 759.87L1026.18 619.274L1012.37 609.171L909.494 749.767L923.301 759.87ZM1014.22 621.126L1048.47 646.186L1058.57 632.379L1024.33 607.319L1014.22 621.126ZM1046.62 634.231L1001.48 695.917L1015.29 706.02L1060.43 644.334L1046.62 634.231ZM1010.83 709.167L1102.83 681.773L1097.95 665.376L1005.94 692.77L1010.83 709.167ZM1095.34 680.478L1135.59 709.934L1145.69 696.127L1105.44 666.671L1095.34 680.478ZM1138.36 694.787L1033.47 723.821L1038.04 740.31L1142.93 711.275L1138.36 694.787ZM1027.21 732.369L1031.22 845.396L1048.32 844.789L1044.3 731.762L1027.21 732.369ZM1044.82 838.189L1002.96 807.56L992.859 821.367L1034.72 851.996L1044.82 838.189Z" fill="#0D4D4B"/>
<path opacity="0.1" d="M618.631 968.056L616.201 976.258L621.081 977.703L624.68 974.105L618.631 968.056ZM599.679 968.407L602.109 976.609L602.247 976.568L602.384 976.522L599.679 968.407ZM568.092 1012.63L576.64 1012.3L576.638 1012.26L576.637 1012.22L568.092 1012.63ZM620.561 1064.4L620.322 1072.95L620.401 1072.95L620.481 1072.95L620.561 1064.4ZM668.468 1024.21L660.018 1022.88L660.011 1022.92L660.004 1022.97L668.468 1024.21ZM663.554 996.835L671.206 993.009L665.898 982.394L657.506 990.786L663.554 996.835ZM625.475 1034.91L619.426 1040.96L625.475 1047.01L631.524 1040.96L625.475 1034.91ZM603.364 1012.8L597.315 1006.76L591.266 1012.8L597.315 1018.85L603.364 1012.8ZM668.643 947.524L674.692 941.476L668.643 935.427L662.595 941.476L668.643 947.524ZM696.545 975.426L704.065 971.349L703.473 970.256L702.594 969.377L696.545 975.426ZM706.021 1007.71L697.501 1008.47L697.505 1008.52L697.509 1008.57L706.021 1007.71ZM701.459 1043.51L693.375 1040.72L701.459 1043.51ZM639.162 1101.95L641.435 1110.2L641.495 1110.18L641.555 1110.16L639.162 1101.95ZM594.59 1101.95L592.24 1110.17L592.278 1110.19L592.317 1110.2L594.59 1101.95ZM529.661 1037.02L521.427 1039.34L521.431 1039.35L521.436 1039.37L529.661 1037.02ZM529.661 992.448L537.886 994.798L537.897 994.759L537.908 994.721L529.661 992.448ZM601.96 925.414L603.394 933.847L603.417 933.843L603.44 933.839L601.96 925.414ZM651.797 934.89L657.846 940.938L665.663 933.121L656.134 927.516L651.797 934.89ZM621.061 959.854C613.044 957.479 604.935 957.638 596.974 960.291L602.384 976.522C607.058 974.964 611.583 974.889 616.201 976.258L621.061 959.854ZM597.249 960.205C589.31 962.557 582.149 967.171 575.731 973.589L587.828 985.686C592.642 980.873 597.413 978 602.109 976.609L597.249 960.205ZM575.731 973.589C564.537 984.782 558.834 998.049 559.547 1013.04L576.637 1012.22C576.18 1002.64 579.602 993.913 587.828 985.686L575.731 973.589ZM559.544 1012.96C560.113 1027.76 566.922 1041.1 578.714 1052.9L590.812 1040.8C581.312 1031.3 577.007 1021.83 576.64 1012.3L559.544 1012.96ZM578.714 1052.9C591.156 1065.34 605.054 1072.52 620.322 1072.95L620.801 1055.84C611.033 1055.57 601.066 1051.05 590.812 1040.8L578.714 1052.9ZM620.481 1072.95C635.776 1073.09 649.519 1066.49 661.531 1054.48L649.434 1042.38C639.92 1051.89 630.382 1055.93 620.641 1055.84L620.481 1072.95ZM661.531 1054.48C669.966 1046.04 675.333 1036.35 676.932 1025.45L660.004 1022.97C659.029 1029.62 655.739 1036.07 649.434 1042.38L661.531 1054.48ZM676.918 1025.54C678.643 1014.62 676.549 1003.7 671.206 993.009L655.903 1000.66C659.919 1008.69 661.101 1016.02 660.018 1022.88L676.918 1025.54ZM657.506 990.786L619.426 1028.87L631.524 1040.96L669.603 1002.88L657.506 990.786ZM631.524 1028.87L609.413 1006.76L597.315 1018.85L619.426 1040.96L631.524 1028.87ZM609.413 1018.85L674.692 953.573L662.595 941.476L597.315 1006.76L609.413 1018.85ZM662.595 953.573L690.496 981.475L702.594 969.377L674.692 941.476L662.595 953.573ZM689.025 979.503C693.693 988.113 696.544 997.734 697.501 1008.47L714.542 1006.96C713.393 994.064 709.926 982.159 704.065 971.349L689.025 979.503ZM697.509 1008.57C698.545 1018.92 697.22 1029.61 693.375 1040.72L709.542 1046.31C714.12 1033.09 715.837 1019.91 714.533 1006.86L697.509 1008.57ZM693.375 1040.72C689.639 1051.51 683.15 1061.66 673.65 1071.16L685.748 1083.25C696.838 1072.16 704.855 1059.85 709.542 1046.31L693.375 1040.72ZM673.65 1071.16C662.385 1082.42 650.097 1089.85 636.77 1093.74L641.555 1110.16C657.943 1105.39 672.68 1096.32 685.748 1083.25L673.65 1071.16ZM636.89 1093.7C623.52 1097.39 610.233 1097.39 596.863 1093.7L592.317 1110.2C608.662 1114.7 625.09 1114.7 641.435 1110.2L636.89 1093.7ZM596.94 1093.72C583.762 1089.96 571.545 1082.6 560.278 1071.33L548.18 1083.43C561.247 1096.5 575.937 1105.52 592.24 1110.17L596.94 1093.72ZM560.278 1071.33C549.011 1060.07 541.652 1047.85 537.886 1034.67L521.436 1039.37C526.094 1055.67 535.113 1070.36 548.18 1083.43L560.278 1071.33ZM537.896 1034.7C534.107 1021.23 534.117 1007.99 537.886 994.798L521.436 990.098C516.782 1006.39 516.792 1022.86 521.427 1039.34L537.896 1034.7ZM537.908 994.721C541.565 981.452 548.858 969.204 560.102 957.96L548.005 945.863C534.915 958.952 525.947 973.729 521.415 990.175L537.908 994.721ZM560.102 957.96C573.839 944.223 588.264 936.42 603.394 933.847L600.526 916.98C581.261 920.257 563.749 930.118 548.005 945.863L560.102 957.96ZM603.44 933.839C618.646 931.168 633.207 933.879 647.46 942.263L656.134 927.516C638.567 917.183 619.903 913.576 600.48 916.988L603.44 933.839ZM645.748 928.841L612.582 962.007L624.68 974.105L657.846 940.938L645.748 928.841Z" fill="#0D4D4B"/>
<path opacity="0.1" d="M489.51 820.257L481.013 821.246L481.51 825.516L485.233 827.665L489.51 820.257ZM485.181 783.084L493.678 782.094L493.052 776.716L487.922 774.98L485.181 783.084ZM434.017 742.654L426.662 747.023L426.673 747.042L426.685 747.061L434.017 742.654ZM421.745 698.889L413.191 698.896L413.191 698.957L413.192 699.018L421.745 698.889ZM467.78 619.154L463.615 611.682L463.581 611.701L463.548 611.72L467.78 619.154ZM511.818 607.899L511.968 599.346L511.946 599.346L511.924 599.345L511.818 607.899ZM589.834 652.942L582.48 657.31L582.491 657.329L582.502 657.348L589.834 652.942ZM601.891 696.583L593.337 696.556L593.337 696.595L593.337 696.634L601.891 696.583ZM560.826 773.17L556.074 766.057L556.055 766.07L556.035 766.083L560.826 773.17ZM523.856 787.073L522.812 778.582L513.902 779.678L515.426 788.525L523.856 787.073ZM533.998 845.942L529.721 853.35L545.527 862.476L542.428 844.49L533.998 845.942ZM464.377 712.9L456.002 714.644L456.019 714.723L456.037 714.801L464.377 712.9ZM522.53 746.188L519.933 738.038L519.893 738.051L519.853 738.064L522.53 746.188ZM559.259 682.572L550.884 684.315L550.901 684.394L550.919 684.473L559.259 682.572ZM501.354 648.854L498.83 640.68L498.79 640.693L498.75 640.706L501.354 648.854ZM498.006 819.267L493.678 782.094L476.684 784.073L481.013 821.246L498.006 819.267ZM487.922 774.98C482.024 772.985 476.624 770.558 471.702 767.716L463.147 782.532C469.114 785.977 475.552 788.857 482.44 791.187L487.922 774.98ZM471.702 767.716C458.717 760.219 448.656 750.407 441.349 738.248L426.685 747.061C435.552 761.816 447.763 773.65 463.147 782.532L471.702 767.716ZM441.371 738.286C434.203 726.218 430.514 713.095 430.298 698.761L413.192 699.018C413.451 716.289 417.943 732.343 426.662 747.023L441.371 738.286ZM430.299 698.883C430.289 684.635 434.09 670.791 441.917 657.235L427.1 648.681C417.886 664.641 413.178 681.418 413.191 698.896L430.299 698.883ZM441.917 657.235C449.744 643.679 459.782 633.551 472.013 626.587L463.548 611.72C448.457 620.313 436.314 632.722 427.1 648.681L441.917 657.235ZM471.946 626.625C484.467 619.645 497.676 616.279 511.712 616.452L511.924 599.345C494.851 599.134 478.702 603.271 463.615 611.682L471.946 626.625ZM511.668 616.452C525.851 616.7 539.38 620.507 552.364 628.004L560.919 613.188C545.534 604.305 529.18 599.648 511.968 599.346L511.668 616.452ZM552.364 628.004C565.35 635.501 575.324 645.263 582.48 657.31L597.189 648.573C588.457 633.871 576.303 622.07 560.919 613.188L552.364 628.004ZM582.502 657.348C589.788 669.472 593.381 682.487 593.337 696.556L610.445 696.609C610.499 679.404 606.054 663.325 597.166 648.535L582.502 657.348ZM593.337 696.634C593.421 710.708 589.67 724.465 581.844 738.022L596.66 746.576C605.874 730.617 610.549 713.897 610.445 696.531L593.337 696.634ZM581.844 738.022C575.004 749.869 566.407 759.155 556.074 766.057L565.577 780.283C578.256 771.814 588.61 760.52 596.66 746.576L581.844 738.022ZM556.035 766.083C545.863 772.959 534.821 777.106 522.812 778.582L524.9 795.563C539.624 793.752 553.229 788.63 565.616 780.257L556.035 766.083ZM515.426 788.525L525.568 847.395L542.428 844.49L532.286 785.62L515.426 788.525ZM538.275 838.534L493.787 812.848L485.233 827.665L529.721 853.35L538.275 838.534ZM464.712 670.396C456.229 685.088 452.947 699.967 456.002 714.644L472.752 711.157C470.744 701.514 472.624 690.908 479.528 678.95L464.712 670.396ZM456.037 714.801C459.396 729.542 468.567 740.958 482.505 749.005L491.059 734.188C480.639 728.172 474.873 720.457 472.717 711L456.037 714.801ZM482.505 749.005C496.371 757.011 510.807 759.059 525.207 754.313L519.853 738.064C510.66 741.093 501.264 740.08 491.059 734.188L482.505 749.005ZM525.127 754.339C539.513 749.755 550.828 739.596 559.264 724.985L544.447 716.431C537.662 728.184 529.427 735.013 519.933 738.038L525.127 754.339ZM559.264 724.985C567.765 710.261 570.944 695.348 567.599 680.671L550.919 684.473C553.089 693.994 551.333 704.505 544.447 716.431L559.264 724.985ZM567.634 680.828C564.543 665.984 555.552 654.506 541.685 646.501L533.131 661.317C543.336 667.209 548.912 674.84 550.884 684.315L567.634 680.828ZM541.685 646.501C527.748 638.454 513.276 636.22 498.83 640.68L503.878 657.027C513.147 654.165 522.711 655.301 533.131 661.317L541.685 646.501ZM498.75 640.706C484.514 645.256 473.259 655.59 464.712 670.396L479.528 678.95C486.532 666.819 494.767 659.94 503.959 657.002L498.75 640.706Z" fill="#0D4D4B"/>
<path opacity="0.1" d="M1057.93 1116.45L1054.3 1108.7L1039.43 1115.65L1053.65 1123.86L1057.93 1116.45ZM1122.83 1153.92L1130.24 1158.2L1134.52 1150.79L1127.11 1146.51L1122.83 1153.92ZM1105.46 1184.01L1101.18 1191.42L1108.59 1195.7L1112.87 1188.29L1105.46 1184.01ZM998.859 1122.46L991.451 1118.19L987.174 1125.6L994.582 1129.87L998.859 1122.46ZM1014.99 1094.52L1011.34 1086.79L1008.92 1087.93L1007.58 1090.25L1014.99 1094.52ZM1133.07 1038.9L1136.72 1046.64L1151.51 1039.67L1137.35 1031.5L1133.07 1038.9ZM1068.59 1001.68L1061.19 997.401L1056.91 1004.81L1064.32 1009.09L1068.59 1001.68ZM1085.97 971.59L1090.24 964.181L1082.84 959.904L1078.56 967.312L1085.97 971.59ZM1192.57 1033.14L1199.98 1037.41L1204.25 1030L1196.84 1025.73L1192.57 1033.14ZM1176.44 1061.08L1180.06 1068.83L1182.5 1067.69L1183.84 1065.35L1176.44 1061.08ZM1053.65 1123.86L1118.55 1161.33L1127.11 1146.51L1062.2 1109.04L1053.65 1123.86ZM1115.42 1149.64L1098.05 1179.73L1112.87 1188.29L1130.24 1158.2L1115.42 1149.64ZM1109.74 1176.6L1003.14 1115.06L994.582 1129.87L1101.18 1191.42L1109.74 1176.6ZM1006.27 1126.74L1022.4 1098.8L1007.58 1090.25L991.451 1118.19L1006.27 1126.74ZM1018.64 1102.26L1136.72 1046.64L1129.43 1031.17L1011.34 1086.79L1018.64 1102.26ZM1137.35 1031.5L1072.87 994.27L1064.32 1009.09L1128.79 1046.31L1137.35 1031.5ZM1076 1005.96L1093.37 975.867L1078.56 967.312L1061.19 997.401L1076 1005.96ZM1081.69 978.998L1188.29 1040.54L1196.84 1025.73L1090.24 964.181L1081.69 978.998ZM1185.16 1028.86L1169.03 1056.8L1183.84 1065.35L1199.98 1037.41L1185.16 1028.86ZM1172.82 1053.33L1054.3 1108.7L1061.55 1124.2L1180.06 1068.83L1172.82 1053.33Z" fill="#0D4D4B"/>
<path opacity="0.1" d="M139.085 531.764L139.86 540.283L139.882 540.281L139.904 540.279L139.085 531.764ZM94.3023 523.989L90.6235 531.712L90.6787 531.738L90.7343 531.764L94.3023 523.989ZM42.1696 448.099L33.6325 448.641L33.6349 448.679L33.6377 448.718L42.1696 448.099ZM50.9797 403.508L43.3253 399.689L43.3155 399.709L43.3057 399.729L50.9797 403.508ZM125.233 352.5L126.008 361.019L126.029 361.017L126.051 361.015L125.233 352.5ZM169.811 360.415L166.103 368.124L166.138 368.141L166.173 368.157L169.811 360.415ZM221.944 436.305L230.476 435.687L230.474 435.664L230.473 435.642L221.944 436.305ZM213.339 480.755L221.013 484.535L221.013 484.535L213.339 480.755ZM180.398 453.404L171.924 452.237L171.918 452.279L171.913 452.321L180.398 453.404ZM138.805 392.856L136.771 401.165L136.849 401.184L136.928 401.202L138.805 392.856ZM83.4344 430.591L74.9708 429.349L74.9647 429.391L74.959 429.433L83.4344 430.591ZM125.309 491.549L123.276 499.858L123.354 499.877L123.432 499.894L125.309 491.549ZM177.935 508.548C165.576 517.038 152.387 521.892 138.267 523.249L139.904 540.279C157.04 538.632 172.979 532.709 187.622 522.65L177.935 508.548ZM138.311 523.245C124.332 524.516 110.899 522.194 97.8703 516.215L90.7343 531.764C106.433 538.968 122.856 541.829 139.86 540.283L138.311 523.245ZM97.9811 516.266C85.1181 510.139 74.2609 500.745 65.3979 487.843L51.2962 497.531C61.7313 512.721 74.8443 524.195 90.6235 531.712L97.9811 516.266ZM65.3979 487.843C56.5343 474.941 51.7185 461.519 50.7014 447.481L33.6377 448.718C34.8926 466.038 40.8618 482.341 51.2962 497.531L65.3979 487.843ZM50.7066 447.558C49.7999 433.252 52.4516 419.88 58.6536 407.288L43.3057 399.729C35.7617 415.046 32.5399 431.402 33.6325 448.641L50.7066 447.558ZM58.634 407.328C64.9672 394.634 74.2297 384.065 86.5882 375.575L76.901 361.474C62.2584 371.532 51.0109 384.286 43.3253 399.689L58.634 407.328ZM86.5882 375.575C98.947 367.085 112.054 362.288 126.008 361.019L124.458 343.981C107.429 345.529 91.5434 351.415 76.901 361.474L86.5882 375.575ZM126.051 361.015C140.132 359.661 153.425 362.024 166.103 368.124L173.52 352.707C158.016 345.248 141.59 342.334 124.414 343.985L126.051 361.015ZM166.173 368.157C178.911 374.143 189.712 383.454 198.575 396.356L212.677 386.669C202.242 371.48 189.166 360.059 173.449 352.673L166.173 368.157ZM198.575 396.356C207.438 409.258 212.311 422.763 213.416 436.968L230.473 435.642C229.118 418.216 223.112 401.86 212.677 386.669L198.575 396.356ZM213.412 436.923C214.44 451.103 211.859 464.4 205.665 476.976L221.013 484.535C228.565 469.201 231.721 452.865 230.476 435.687L213.412 436.923ZM205.665 476.976C199.474 489.545 190.293 500.058 177.935 508.548L187.622 522.65C202.264 512.591 213.457 499.875 221.013 484.535L205.665 476.976ZM165.701 490.739C178.898 481.673 186.964 469.527 188.884 454.487L171.913 452.321C170.688 461.922 165.726 469.966 156.014 476.638L165.701 490.739ZM188.873 454.57C190.931 439.613 186.637 425.026 177.085 411.12L162.983 420.807C170.667 431.993 173.283 442.366 171.924 452.237L188.873 454.57ZM177.085 411.12C167.458 397.106 155.368 387.813 140.681 384.51L136.928 401.202C146.455 403.344 155.185 409.456 162.983 420.807L177.085 411.12ZM140.838 384.547C126.11 380.942 111.879 384.113 98.6815 393.179L108.369 407.281C118.081 400.609 127.37 398.864 136.771 401.165L140.838 384.547ZM98.6815 393.179C85.4161 402.292 77.1668 414.39 74.9708 429.349L91.8979 431.834C93.3068 422.237 98.4514 414.094 108.369 407.281L98.6815 393.179ZM74.959 429.433C72.9342 444.24 77.4131 458.848 87.0932 472.94L101.195 463.252C93.2632 451.706 90.6023 441.311 91.9097 431.75L74.959 429.433ZM87.0932 472.94C96.6994 486.923 108.713 496.294 123.276 499.858L127.343 483.24C117.776 480.898 109.013 474.633 101.195 463.252L87.0932 472.94ZM123.432 499.894C138.183 503.211 152.435 499.852 165.701 490.739L156.014 476.638C146.096 483.45 136.65 485.331 127.186 483.203L123.432 499.894Z" fill="#0D4D4B"/>
</g>
<g opacity="0.8">
<path opacity="0.1" d="M269.791 220.323L278.327 219.769L277.93 213.647L272.005 212.06L269.791 220.323ZM206.986 203.494L209.2 195.231L203.274 193.644L199.87 198.746L206.986 203.494ZM188.953 230.521L186.739 238.784L192.664 240.371L196.069 235.268L188.953 230.521ZM146.044 219.023L139.028 214.13L132.054 224.131L143.83 227.286L146.044 219.023ZM252.022 67.0592L254.236 58.7965L248.438 57.2431L245.005 62.166L252.022 67.0592ZM299.485 79.777L308.008 79.0476L307.496 73.0676L301.699 71.5142L299.485 79.777ZM315.282 264.371L313.068 272.633L324.845 275.789L323.805 263.641L315.282 264.371ZM271.894 252.745L263.358 253.298L263.755 259.42L269.68 261.007L271.894 252.745ZM267.722 185.854L265.508 194.117L277.028 197.204L276.258 185.302L267.722 185.854ZM263.374 118.66L271.91 118.107L270.269 92.7449L256.241 113.938L263.374 118.66ZM226.251 174.742L219.118 170.021L212.559 179.929L224.037 183.005L226.251 174.742ZM272.005 212.06L209.2 195.231L204.772 211.757L267.577 228.585L272.005 212.06ZM199.87 198.746L181.837 225.773L196.069 235.268L214.101 208.242L199.87 198.746ZM191.167 222.258L148.258 210.761L143.83 227.286L186.739 238.784L191.167 222.258ZM153.061 223.917L259.038 71.9524L245.005 62.166L139.028 214.13L153.061 223.917ZM249.808 75.322L297.271 88.0397L301.699 71.5142L254.236 58.7965L249.808 75.322ZM290.962 80.5064L306.759 265.1L323.805 263.641L308.008 79.0476L290.962 80.5064ZM317.496 256.108L274.108 244.482L269.68 261.007L313.068 272.633L317.496 256.108ZM280.43 252.191L278.327 219.769L261.254 220.876L263.358 253.298L280.43 252.191ZM276.258 185.302L271.91 118.107L254.838 119.212L259.185 186.407L276.258 185.302ZM256.241 113.938L219.118 170.021L233.384 179.464L270.507 123.381L256.241 113.938ZM224.037 183.005L265.508 194.117L269.936 177.591L228.465 166.479L224.037 183.005Z" fill="#0D4D4B"/>
<path opacity="0.1" d="M522.682 328.188L530.239 332.195L534.246 324.637L526.689 320.63L522.682 328.188ZM441.075 482.107L437.068 489.665L444.625 493.672L448.632 486.114L441.075 482.107ZM403.582 462.228L396.024 458.221L392.017 465.779L399.575 469.786L403.582 462.228ZM485.189 308.309L489.196 300.751L481.638 296.744L477.631 304.302L485.189 308.309ZM515.124 324.181L433.517 478.1L448.632 486.114L530.239 332.195L515.124 324.181ZM445.082 474.549L407.589 454.671L399.575 469.786L437.068 489.665L445.082 474.549ZM411.139 466.236L492.746 312.316L477.631 304.302L396.024 458.221L411.139 466.236ZM481.181 315.867L518.675 335.745L526.689 320.63L489.196 300.751L481.181 315.867Z" fill="#0D4D4B"/>
<path opacity="0.1" d="M1443.68 294.027L1439.05 286.832L1431.85 291.46L1436.48 298.654L1443.68 294.027ZM1462.74 323.664L1455.55 328.292L1460.17 335.486L1467.37 330.858L1462.74 323.664ZM1510.54 292.918L1517.73 288.29L1513.1 281.095L1505.91 285.723L1510.54 292.918ZM1528.26 320.468L1532.89 327.662L1540.08 323.034L1535.45 315.84L1528.26 320.468ZM1480.46 351.214L1475.84 344.02L1468.64 348.648L1473.27 355.842L1480.46 351.214ZM1501.14 383.356L1493.95 387.984L1498.57 395.178L1505.77 390.55L1501.14 383.356ZM1555.2 348.582L1562.39 343.954L1557.76 336.76L1550.57 341.388L1555.2 348.582ZM1573.59 377.176L1578.22 384.37L1585.41 379.742L1580.79 372.548L1573.59 377.176ZM1483.84 434.909L1476.65 439.537L1481.28 446.731L1488.47 442.103L1483.84 434.909ZM1389.59 288.392L1384.96 281.198L1377.77 285.826L1382.4 293.02L1389.59 288.392ZM1479.34 230.658L1486.53 226.031L1481.9 218.836L1474.71 223.464L1479.34 230.658ZM1497.73 259.252L1502.36 266.446L1509.55 261.819L1504.93 254.624L1497.73 259.252ZM1436.48 298.654L1455.55 328.292L1469.94 319.036L1450.87 289.399L1436.48 298.654ZM1467.37 330.858L1515.16 300.112L1505.91 285.723L1458.11 316.47L1467.37 330.858ZM1503.34 297.546L1521.07 325.096L1535.45 315.84L1517.73 288.29L1503.34 297.546ZM1523.63 313.274L1475.84 344.02L1485.09 358.408L1532.89 327.662L1523.63 313.274ZM1473.27 355.842L1493.95 387.984L1508.33 378.728L1487.66 346.586L1473.27 355.842ZM1505.77 390.55L1559.83 355.776L1550.57 341.388L1496.51 376.162L1505.77 390.55ZM1548 353.21L1566.4 381.804L1580.79 372.548L1562.39 343.954L1548 353.21ZM1568.96 369.981L1479.22 427.715L1488.47 442.103L1578.22 384.37L1568.96 369.981ZM1491.04 430.281L1396.79 283.764L1382.4 293.02L1476.65 439.537L1491.04 430.281ZM1394.22 295.586L1483.97 237.853L1474.71 223.464L1384.96 281.198L1394.22 295.586ZM1472.14 235.286L1490.54 263.88L1504.93 254.624L1486.53 226.031L1472.14 235.286ZM1493.1 252.058L1439.05 286.832L1448.3 301.221L1502.36 266.446L1493.1 252.058Z" fill="#0D4D4B"/>
<path opacity="0.1" d="M1621.88 26.1418L1614.69 30.7698L1619.31 37.964L1626.51 33.336L1621.88 26.1418ZM1668.63 -3.93322L1675.83 -8.56118L1671.2 -15.7554L1664 -11.1274L1668.63 -3.93322ZM1686.36 23.617L1690.98 30.8112L1698.18 26.1833L1693.55 18.989L1686.36 23.617ZM1603.91 76.6511L1596.72 81.2791L1601.35 88.4733L1608.54 83.8453L1603.91 76.6511ZM1509.66 -69.866L1505.03 -77.0602L1497.84 -72.4323L1502.47 -65.2381L1509.66 -69.866ZM1545.35 -92.8251L1552.54 -97.4531L1547.92 -104.647L1540.72 -100.019L1545.35 -92.8251ZM1626.51 33.336L1673.26 3.26099L1664 -11.1274L1617.25 18.9476L1626.51 33.336ZM1661.44 0.694746L1679.16 28.245L1693.55 18.989L1675.83 -8.56118L1661.44 0.694746ZM1681.73 16.4228L1599.29 69.4569L1608.54 83.8453L1690.98 30.8112L1681.73 16.4228ZM1611.11 72.0231L1516.85 -74.494L1502.47 -65.2381L1596.72 81.2791L1611.11 72.0231ZM1514.29 -62.6718L1549.98 -85.6309L1540.72 -100.019L1505.03 -77.0602L1514.29 -62.6718ZM1538.16 -88.1971L1614.69 30.7698L1629.07 21.5139L1552.54 -97.4531L1538.16 -88.1971Z" fill="#0D4D4B"/>
<g opacity="0.1">
<path d="M1102.91 181.464L1101.07 84.7915L1055.64 146.878L1021.4 121.818L1124.27 -18.7776L1158.52 6.28219L1113.38 67.9681L1205.39 40.5746L1245.64 70.0309L1140.75 99.0656L1144.77 212.092L1102.91 181.464Z" fill="white"/>
<path d="M1102.91 181.464L1094.36 181.626L1094.44 185.864L1097.86 188.367L1102.91 181.464ZM1101.07 84.7915L1109.63 84.6291L1109.15 59.2751L1094.17 79.7401L1101.07 84.7915ZM1055.64 146.878L1050.59 153.781L1057.5 158.833L1062.55 151.929L1055.64 146.878ZM1021.4 121.818L1014.49 116.767L1009.44 123.67L1016.35 128.722L1021.4 121.818ZM1124.27 -18.7776L1129.33 -25.6811L1122.42 -30.7325L1117.37 -23.8291L1124.27 -18.7776ZM1158.52 6.28219L1165.43 11.3336L1170.48 4.43014L1163.57 -0.621281L1158.52 6.28219ZM1113.38 67.9681L1106.48 62.9167L1091.48 83.4149L1115.83 76.1666L1113.38 67.9681ZM1205.39 40.5746L1210.44 33.6711L1207.01 31.165L1202.95 32.376L1205.39 40.5746ZM1245.64 70.0309L1247.93 78.275L1264.95 73.5613L1250.69 63.1274L1245.64 70.0309ZM1140.75 99.0656L1138.47 90.8214L1131.97 92.6224L1132.21 99.3692L1140.75 99.0656ZM1144.77 212.092L1139.72 218.996L1153.94 229.405L1153.32 211.789L1144.77 212.092ZM1111.46 181.301L1109.63 84.6291L1092.52 84.954L1094.36 181.626L1111.46 181.301ZM1094.17 79.7401L1048.74 141.827L1062.55 151.929L1107.98 89.843L1094.17 79.7401ZM1060.7 139.975L1026.45 114.915L1016.35 128.722L1050.59 153.781L1060.7 139.975ZM1028.3 126.87L1131.18 -13.7262L1117.37 -23.8291L1014.49 116.767L1028.3 126.87ZM1119.22 -11.8742L1153.47 13.1857L1163.57 -0.621281L1129.33 -25.6811L1119.22 -11.8742ZM1151.62 1.23076L1106.48 62.9167L1120.29 73.0195L1165.43 11.3336L1151.62 1.23076ZM1115.83 76.1666L1207.83 48.7731L1202.95 32.376L1110.94 59.7696L1115.83 76.1666ZM1200.34 47.478L1240.59 76.9343L1250.69 63.1274L1210.44 33.6711L1200.34 47.478ZM1243.36 61.7867L1138.47 90.8214L1143.04 107.31L1247.93 78.275L1243.36 61.7867ZM1132.21 99.3692L1136.22 212.396L1153.32 211.789L1149.3 98.762L1132.21 99.3692ZM1149.82 205.189L1107.96 174.56L1097.86 188.367L1139.72 218.996L1149.82 205.189Z" fill="#0D4D4B"/>
</g>
<path opacity="0.1" d="M723.631 335.056L721.201 343.258L726.081 344.704L729.68 341.105L723.631 335.056ZM704.679 335.407L707.109 343.609L707.247 343.568L707.384 343.522L704.679 335.407ZM673.092 379.628L681.64 379.3L681.638 379.261L681.637 379.222L673.092 379.628ZM725.561 431.396L725.322 439.947L725.401 439.949L725.481 439.95L725.561 431.396ZM773.468 391.21L765.018 389.876L765.011 389.922L765.004 389.969L773.468 391.21ZM768.554 363.835L776.206 360.009L770.898 349.394L762.506 357.786L768.554 363.835ZM730.475 401.915L724.426 407.963L730.475 414.012L736.524 407.963L730.475 401.915ZM708.364 379.804L702.315 373.755L696.266 379.804L702.315 385.853L708.364 379.804ZM773.643 314.524L779.692 308.476L773.643 302.427L767.595 308.476L773.643 314.524ZM801.545 342.426L809.065 338.349L808.473 337.256L807.594 336.377L801.545 342.426ZM811.021 374.715L802.501 375.474L802.505 375.52L802.509 375.566L811.021 374.715ZM806.459 410.513L798.375 407.715L806.459 410.513ZM744.162 468.949L746.435 477.196L746.495 477.179L746.555 477.162L744.162 468.949ZM699.59 468.949L697.24 477.174L697.278 477.185L697.317 477.196L699.59 468.949ZM634.661 404.02L626.427 406.336L626.431 406.353L626.436 406.37L634.661 404.02ZM634.661 359.448L642.886 361.798L642.897 361.759L642.908 361.721L634.661 359.448ZM706.96 292.414L708.394 300.847L708.417 300.843L708.44 300.839L706.96 292.414ZM756.797 301.89L762.846 307.938L770.663 300.121L761.134 294.516L756.797 301.89ZM726.061 326.854C718.044 324.479 709.935 324.638 701.974 327.292L707.384 343.522C712.058 341.964 716.583 341.889 721.201 343.258L726.061 326.854ZM702.249 327.205C694.31 329.557 687.149 334.171 680.731 340.589L692.828 352.686C697.642 347.873 702.413 345 707.109 343.609L702.249 327.205ZM680.731 340.589C669.537 351.782 663.834 365.049 664.547 380.035L681.637 379.222C681.18 369.64 684.602 360.913 692.828 352.686L680.731 340.589ZM664.544 379.957C665.113 394.757 671.922 408.104 683.714 419.896L695.812 407.799C686.312 398.299 682.007 388.833 681.64 379.3L664.544 379.957ZM683.714 419.896C696.156 432.338 710.054 439.519 725.322 439.947L725.801 422.845C716.033 422.571 706.066 418.053 695.812 407.799L683.714 419.896ZM725.481 439.95C740.776 440.092 754.519 433.488 766.531 421.476L754.434 409.378C744.92 418.892 735.382 422.933 725.641 422.842L725.481 439.95ZM766.531 421.476C774.966 413.04 780.333 403.351 781.932 392.452L765.004 389.969C764.029 396.618 760.739 403.073 754.434 409.378L766.531 421.476ZM781.918 392.544C783.643 381.618 781.549 370.696 776.206 360.009L760.903 367.661C764.919 375.692 766.101 383.02 765.018 389.876L781.918 392.544ZM762.506 357.786L724.426 395.866L736.524 407.963L774.603 369.884L762.506 357.786ZM736.524 395.866L714.413 373.755L702.315 385.853L724.426 407.963L736.524 395.866ZM714.413 385.853L779.692 320.573L767.595 308.476L702.315 373.755L714.413 385.853ZM767.595 320.573L795.496 348.475L807.594 336.377L779.692 308.476L767.595 320.573ZM794.025 346.503C798.693 355.113 801.544 364.734 802.501 375.474L819.542 373.956C818.393 361.064 814.926 349.159 809.065 338.349L794.025 346.503ZM802.509 375.566C803.545 385.918 802.22 396.607 798.375 407.715L814.542 413.311C819.12 400.086 820.837 386.909 819.533 373.864L802.509 375.566ZM798.375 407.715C794.639 418.507 788.15 428.657 778.65 438.157L790.748 450.255C801.838 439.165 809.855 426.853 814.542 413.311L798.375 407.715ZM778.65 438.157C767.385 449.423 755.097 456.854 741.77 460.736L746.555 477.162C762.943 472.387 777.68 463.323 790.748 450.255L778.65 438.157ZM741.89 460.702C728.52 464.387 715.233 464.387 701.863 460.702L697.317 477.196C713.662 481.7 730.09 481.7 746.435 477.196L741.89 460.702ZM701.94 460.724C688.762 456.959 676.545 449.6 665.278 438.333L653.18 450.43C666.247 463.497 680.937 472.516 697.24 477.174L701.94 460.724ZM665.278 438.333C654.011 427.066 646.652 414.849 642.886 401.67L626.436 406.37C631.094 422.673 640.113 437.363 653.18 450.43L665.278 438.333ZM642.896 401.704C639.107 388.232 639.117 374.991 642.886 361.798L626.436 357.098C621.782 373.386 621.792 389.859 626.427 406.336L642.896 401.704ZM642.908 361.721C646.565 348.452 653.858 336.204 665.102 324.96L653.005 312.863C639.915 325.952 630.947 340.729 626.415 357.175L642.908 361.721ZM665.102 324.96C678.839 311.223 693.264 303.42 708.394 300.847L705.526 283.98C686.261 287.257 668.749 297.118 653.005 312.863L665.102 324.96ZM708.44 300.839C723.646 298.168 738.207 300.879 752.46 309.263L761.134 294.516C743.567 284.183 724.903 280.576 705.48 283.988L708.44 300.839ZM750.748 295.841L717.582 329.007L729.68 341.105L762.846 307.938L750.748 295.841Z" fill="#0D4D4B"/>
<path opacity="0.1" d="M594.51 187.257L586.013 188.246L586.51 192.516L590.233 194.665L594.51 187.257ZM590.181 150.084L598.678 149.094L598.052 143.716L592.922 141.98L590.181 150.084ZM539.017 109.654L531.662 114.023L531.673 114.042L531.685 114.061L539.017 109.654ZM526.745 65.8894L518.191 65.8956L518.191 65.9568L518.192 66.018L526.745 65.8894ZM572.78 -13.8463L568.615 -21.3179L568.581 -21.2991L568.548 -21.28L572.78 -13.8463ZM616.818 -25.1011L616.968 -33.654L616.946 -33.6544L616.924 -33.6547L616.818 -25.1011ZM694.834 19.9417L687.48 24.3101L687.491 24.329L687.502 24.3479L694.834 19.9417ZM706.891 63.5826L698.337 63.5557L698.337 63.5948L698.337 63.6338L706.891 63.5826ZM665.826 140.17L661.074 133.057L661.055 133.07L661.035 133.083L665.826 140.17ZM628.856 154.073L627.812 145.582L618.902 146.678L620.426 155.525L628.856 154.073ZM638.998 212.942L634.721 220.35L650.527 229.476L647.428 211.49L638.998 212.942ZM569.377 79.9004L561.002 81.6439L561.019 81.7227L561.037 81.8012L569.377 79.9004ZM627.53 113.188L624.933 105.038L624.893 105.051L624.853 105.064L627.53 113.188ZM664.259 49.5717L655.884 51.3152L655.901 51.394L655.919 51.4725L664.259 49.5717ZM606.354 15.8539L603.83 7.68047L603.79 7.69292L603.75 7.70577L606.354 15.8539ZM603.006 186.267L598.678 149.094L581.684 151.073L586.013 188.246L603.006 186.267ZM592.922 141.98C587.024 139.985 581.624 137.558 576.702 134.716L568.147 149.532C574.114 152.977 580.552 155.857 587.44 158.187L592.922 141.98ZM576.702 134.716C563.717 127.219 553.656 117.407 546.349 105.248L531.685 114.061C540.552 128.816 552.763 140.65 568.147 149.532L576.702 134.716ZM546.371 105.286C539.203 93.2176 535.514 80.0947 535.298 65.7609L518.192 66.018C518.451 83.2891 522.943 99.3429 531.662 114.023L546.371 105.286ZM535.299 65.8833C535.289 51.6353 539.09 37.7908 546.917 24.2351L532.1 15.6809C522.886 31.6411 518.178 48.4175 518.191 65.8956L535.299 65.8833ZM546.917 24.2351C554.744 10.6785 564.782 0.551422 577.013 -6.41267L568.548 -21.28C553.457 -12.6875 541.314 -0.278319 532.1 15.6809L546.917 24.2351ZM576.946 -6.37473C589.467 -13.3551 602.676 -16.7212 616.712 -16.5476L616.924 -33.6547C599.851 -33.8659 583.702 -29.7287 568.615 -21.3179L576.946 -6.37473ZM616.668 -16.5482C630.851 -16.2996 644.38 -12.4927 657.364 -4.99589L665.919 -19.8122C650.534 -28.6946 634.18 -33.3524 616.968 -33.654L616.668 -16.5482ZM657.364 -4.99589C670.35 2.5011 680.324 12.2635 687.48 24.3101L702.189 15.5733C693.457 0.871417 681.303 -10.93 665.919 -19.8122L657.364 -4.99589ZM687.502 24.3479C694.788 36.4721 698.381 49.4869 698.337 63.5557L715.445 63.6095C715.499 46.4043 711.054 30.3251 702.166 15.5354L687.502 24.3479ZM698.337 63.6338C698.421 77.7081 694.67 91.4654 686.844 105.022L701.66 113.576C710.874 97.617 715.549 80.8966 715.445 63.5314L698.337 63.6338ZM686.844 105.022C680.004 116.869 671.407 126.155 661.074 133.057L670.577 147.283C683.256 138.814 693.61 127.52 701.66 113.576L686.844 105.022ZM661.035 133.083C650.863 139.959 639.821 144.106 627.812 145.582L629.9 162.563C644.624 160.752 658.229 155.63 670.616 147.257L661.035 133.083ZM620.426 155.525L630.568 214.395L647.428 211.49L637.286 152.62L620.426 155.525ZM643.275 205.534L598.787 179.848L590.233 194.665L634.721 220.35L643.275 205.534ZM569.712 37.3958C561.229 52.0882 557.947 66.9666 561.002 81.6439L577.752 78.1569C575.744 68.5144 577.624 57.9078 584.528 45.95L569.712 37.3958ZM561.037 81.8012C564.396 96.5421 573.567 107.958 587.505 116.005L596.059 101.188C585.639 95.1724 579.873 87.4573 577.717 77.9995L561.037 81.8012ZM587.505 116.005C601.371 124.011 615.807 126.059 630.207 121.313L624.853 105.064C615.66 108.093 606.264 107.08 596.059 101.188L587.505 116.005ZM630.127 121.339C644.513 116.755 655.828 106.596 664.264 91.9855L649.447 83.4312C642.662 95.1842 634.427 102.013 624.933 105.038L630.127 121.339ZM664.264 91.9855C672.765 77.2615 675.944 62.3479 672.599 47.6708L655.919 51.4725C658.089 60.9941 656.333 71.505 649.447 83.4312L664.264 91.9855ZM672.634 47.8282C669.543 32.9839 660.552 21.5064 646.685 13.5005L638.131 28.3169C648.336 34.2086 653.912 41.8396 655.884 51.3152L672.634 47.8282ZM646.685 13.5005C632.748 5.45356 618.276 3.21951 603.83 7.68047L608.878 24.0272C618.147 21.1651 627.711 22.3009 638.131 28.3169L646.685 13.5005ZM603.75 7.70577C589.514 12.2562 578.259 22.5903 569.712 37.3958L584.528 45.95C591.532 33.8187 599.767 26.9401 608.959 24.0019L603.75 7.70577Z" fill="#0D4D4B"/>
<path opacity="0.1" d="M1162.93 483.448L1159.3 475.698L1144.43 482.647L1158.65 490.856L1162.93 483.448ZM1227.83 520.921L1235.24 525.198L1239.52 517.79L1232.11 513.513L1227.83 520.921ZM1210.46 551.01L1206.18 558.418L1213.59 562.696L1217.87 555.287L1210.46 551.01ZM1103.86 489.464L1096.45 485.187L1092.17 492.595L1099.58 496.872L1103.86 489.464ZM1119.99 461.524L1116.34 453.786L1113.92 454.927L1112.58 457.247L1119.99 461.524ZM1238.07 405.904L1241.72 413.643L1256.51 406.673L1242.35 398.496L1238.07 405.904ZM1173.59 368.678L1166.19 364.401L1161.91 371.81L1169.32 376.087L1173.59 368.678ZM1190.97 338.59L1195.24 331.181L1187.84 326.904L1183.56 334.312L1190.97 338.59ZM1297.57 400.136L1304.98 404.413L1309.25 397.005L1301.84 392.727L1297.57 400.136ZM1281.44 428.075L1285.06 435.825L1287.5 434.685L1288.84 432.352L1281.44 428.075ZM1158.65 490.856L1223.55 528.329L1232.11 513.513L1167.2 476.04L1158.65 490.856ZM1220.42 516.644L1203.05 546.733L1217.87 555.287L1235.24 525.198L1220.42 516.644ZM1214.74 543.602L1108.14 482.056L1099.58 496.872L1206.18 558.418L1214.74 543.602ZM1111.27 493.741L1127.4 465.802L1112.58 457.247L1096.45 485.187L1111.27 493.741ZM1123.64 469.263L1241.72 413.643L1234.43 398.165L1116.34 453.786L1123.64 469.263ZM1242.35 398.496L1177.87 361.27L1169.32 376.087L1233.79 413.312L1242.35 398.496ZM1181 372.956L1198.37 342.867L1183.56 334.312L1166.19 364.401L1181 372.956ZM1186.69 345.998L1293.29 407.544L1301.84 392.727L1195.24 331.181L1186.69 345.998ZM1290.16 395.858L1274.03 423.798L1288.84 432.352L1304.98 404.413L1290.16 395.858ZM1277.82 420.325L1159.3 475.698L1166.55 491.198L1285.06 435.825L1277.82 420.325Z" fill="#0D4D4B"/>
</g>
</g>
<defs>
<clipPath id="clip0_301_2">
<rect width="1728" height="1117" fill="white"/>
</clipPath>
</defs>
</svg>
